<svg xmlns="http://www.w3.org/2000/svg" viewBox="0 0 64 64" role="img" aria-label="VS monogram favicon">
  <rect width="64" height="64" rx="14" fill="#0d0d0d"/>
  <rect x="3" y="3" width="58" height="58" rx="11" fill="none" stroke="#2a2a2a"/>
  <path d="M17 18l10 29h6l10-29h-6l-7 21-7-21h-6z" fill="#e8a020"/>
  <path d="M46 19c-5.2 0-8.5 2.6-8.5 6.5 0 3.7 2.6 5.2 7.3 6.3 3.2.8 4.5 1.5 4.5 3.1 0 1.7-1.4 2.7-3.8 2.7-2.8 0-5.6-1.1-7.9-3.1v6.1c2.4 1.5 5.2 2.2 8.2 2.2 5.7 0 9.5-2.9 9.5-7.4 0-3.6-2.1-5.5-7-6.7-3.4-.8-4.8-1.3-4.8-3 0-1.4 1.2-2.3 3.2-2.3 2.4 0 4.7.8 6.7 2.3v-5.8c-2.1-1.2-4.7-1.9-7.4-1.9z" fill="#f0ece4"/>
</svg>